# xmcd
#
# Track frame offsets:
#	150
#	14936
#	29094
#	54189
#
# Disc length: 953 seconds
# Revision: 0
# Processed by: cddbd v1.5.2PL0 Copyright (c) Steve Scherf et al.
# Submitted via: dBpowerAMP V12.0
#
DISCID=3203b704
DTITLE=John Prine - Fair and Square EP
DYEAR=2003
DGENRE=Americana
TTITLE0=Carousel Of Love
TTITLE1=That's Alright By Me
TTITLE2=That's How Every Empire Falls
TTITLE3=Dual Custody
EXTD=
EXTT0=
EXTT1=
EXTT2=
EXTT3=
PLAYORDER=
